<?xml version="1.0" encoding="utf-8"?>
<!DOCTYPE svg PUBLIC "-//W3C//DTD SVG 1.1//EN" "http://www.w3.org/Graphics/SVG/1.1/DTD/svg11.dtd">
<svg version="1.1" id="Layer_1" xmlns="http://www.w3.org/2000/svg" xmlns:xlink="http://www.w3.org/1999/xlink" x="0px" y="0px" width="612px" height="792px" viewBox="0 0 612 792" enable-background="new 0 0 612 792" xml:space="preserve">
<path id="path8410" fill="none" stroke="#000000" stroke-linecap="round" d=" M190.748,51.586l-0.021,67.037l-57.856,33.5l-57.835-33.537l0.021-67.037l57.856-33.5L190.748,51.586z"/>
<path id="path8410_1_" fill="none" stroke="#000000" stroke-linecap="round" d=" M306.461,51.586l-0.021,67.037l-57.856,33.5l-57.835-33.537l0.021-67.037l57.856-33.5L306.461,51.586z"/>
<path id="path8410_2_" fill="none" stroke="#000000" stroke-linecap="round" d=" M422.174,51.586l-0.021,67.037l-57.855,33.5l-57.835-33.537l0.021-67.037l57.857-33.5L422.174,51.586z"/>
<path id="path8410_3_" fill="none" stroke="#000000" stroke-linecap="round" d=" M537.887,51.586l-0.021,67.037l-57.855,33.5l-57.836-33.537l0.021-67.037l57.857-33.5L537.887,51.586z"/>
<path id="path8410_7_" fill="none" stroke="#000000" stroke-linecap="round" d=" M248.604,152.403l-0.021,67.037l-57.856,33.5l-57.835-33.537l0.021-67.037l57.856-33.5L248.604,152.403z"/>
<path id="path8410_8_" fill="none" stroke="#000000" stroke-linecap="round" d=" M132.892,152.403l-0.021,67.037l-57.856,33.5l-57.835-33.537l0.021-67.037l57.856-33.5L132.892,152.403z"/>
<path id="path8410_6_" fill="none" stroke="#000000" stroke-linecap="round" d=" M364.317,152.403l-0.021,67.037l-57.856,33.5l-57.835-33.537l0.021-67.037l57.856-33.5L364.317,152.403z"/>
<path id="path8410_5_" fill="none" stroke="#000000" stroke-linecap="round" d=" M480.03,152.403l-0.021,67.037l-57.855,33.5l-57.835-33.537l0.021-67.037l57.856-33.5L480.03,152.403z"/>
<path id="path8410_4_" fill="none" stroke="#000000" stroke-linecap="round" d=" M595.743,152.403l-0.021,67.037l-57.855,33.5l-57.836-33.537l0.021-67.037l57.857-33.5L595.743,152.403z"/>
<path id="path8410_17_" fill="none" stroke="#000000" stroke-linecap="round" d=" M190.748,253.216l-0.021,67.037l-57.856,33.5l-57.835-33.537l0.021-67.037l57.856-33.5L190.748,253.216z"/>
<path id="path8410_16_" fill="none" stroke="#000000" stroke-linecap="round" d=" M306.461,253.216l-0.021,67.037l-57.856,33.5l-57.835-33.537l0.021-67.037l57.856-33.5L306.461,253.216z"/>
<path id="path8410_15_" fill="none" stroke="#000000" stroke-linecap="round" d=" M422.174,253.216l-0.021,67.037l-57.855,33.5l-57.835-33.537l0.021-67.037l57.857-33.5L422.174,253.216z"/>
<path id="path8410_14_" fill="none" stroke="#000000" stroke-linecap="round" d=" M537.887,253.216l-0.021,67.037l-57.855,33.5l-57.836-33.537l0.021-67.037l57.857-33.5L537.887,253.216z"/>
<path id="path8410_13_" fill="none" stroke="#000000" stroke-linecap="round" d=" M248.604,354.033l-0.021,67.037l-57.856,33.5l-57.835-33.537l0.021-67.037l57.856-33.5L248.604,354.033z"/>
<path id="path8410_12_" fill="none" stroke="#000000" stroke-linecap="round" d=" M132.892,354.033l-0.021,67.037l-57.856,33.5l-57.835-33.537l0.021-67.037l57.856-33.5L132.892,354.033z"/>
<path id="path8410_11_" fill="none" stroke="#000000" stroke-linecap="round" d=" M364.317,354.033l-0.021,67.037l-57.856,33.5l-57.835-33.537l0.021-67.037l57.856-33.5L364.317,354.033z"/>
<path id="path8410_10_" fill="none" stroke="#000000" stroke-linecap="round" d=" M480.03,354.033l-0.021,67.037l-57.855,33.5l-57.835-33.537l0.021-67.037l57.856-33.5L480.03,354.033z"/>
<path id="path8410_9_" fill="none" stroke="#000000" stroke-linecap="round" d=" M595.743,354.033l-0.021,67.037l-57.855,33.5l-57.836-33.537l0.021-67.037l57.857-33.5L595.743,354.033z"/>
<path id="path8410_26_" fill="none" stroke="#000000" stroke-linecap="round" d=" M190.748,454.466l-0.021,67.037l-57.856,33.5l-57.835-33.537l0.021-67.037l57.856-33.5L190.748,454.466z"/>
<path id="path8410_25_" fill="none" stroke="#000000" stroke-linecap="round" d=" M306.461,454.466l-0.021,67.037l-57.856,33.5l-57.835-33.537l0.021-67.037l57.856-33.5L306.461,454.466z"/>
<path id="path8410_24_" fill="none" stroke="#000000" stroke-linecap="round" d=" M422.174,454.466l-0.021,67.037l-57.855,33.5l-57.835-33.537l0.021-67.037l57.857-33.5L422.174,454.466z"/>
<path id="path8410_23_" fill="none" stroke="#000000" stroke-linecap="round" d=" M537.887,454.466l-0.021,67.037l-57.855,33.5l-57.836-33.537l0.021-67.037l57.857-33.5L537.887,454.466z"/>
<path id="path8410_30_" fill="none" stroke="#000000" stroke-linecap="round" d=" M190.748,655.797l-0.021,67.037l-57.856,33.5l-57.835-33.537l0.021-67.037l57.856-33.5L190.748,655.797z"/>
<path id="path8410_29_" fill="none" stroke="#000000" stroke-linecap="round" d=" M306.461,655.797l-0.021,67.037l-57.856,33.5l-57.835-33.537l0.021-67.037l57.856-33.5L306.461,655.797z"/>
<path id="path8410_28_" fill="none" stroke="#000000" stroke-linecap="round" d=" M422.174,655.797l-0.021,67.037l-57.855,33.5l-57.835-33.537l0.021-67.037l57.857-33.5L422.174,655.797z"/>
<path id="path8410_27_" fill="none" stroke="#000000" stroke-linecap="round" d=" M537.887,655.797l-0.021,67.037l-57.855,33.5l-57.836-33.537l0.021-67.037l57.857-33.5L537.887,655.797z"/>
<path id="path8410_22_" fill="none" stroke="#000000" stroke-linecap="round" d=" M248.604,555.283l-0.021,67.037l-57.856,33.5l-57.835-33.537l0.021-67.037l57.856-33.5L248.604,555.283z"/>
<path id="path8410_21_" fill="none" stroke="#000000" stroke-linecap="round" d=" M132.892,555.283l-0.021,67.037l-57.856,33.5l-57.835-33.537l0.021-67.037l57.856-33.5L132.892,555.283z"/>
<path id="path8410_20_" fill="none" stroke="#000000" stroke-linecap="round" d=" M364.317,555.283l-0.021,67.037l-57.856,33.5l-57.835-33.537l0.021-67.037l57.856-33.5L364.317,555.283z"/>
<path id="path8410_19_" fill="none" stroke="#000000" stroke-linecap="round" d=" M480.03,555.283l-0.021,67.037l-57.855,33.5l-57.835-33.537l0.021-67.037l57.856-33.5L480.03,555.283z"/>
<path id="path8410_18_" fill="none" stroke="#000000" stroke-linecap="round" d=" M595.743,555.283l-0.021,67.037l-57.855,33.5l-57.836-33.537l0.021-67.037l57.857-33.5L595.743,555.283z"/>
</svg>
