<?xml version="1.0" encoding="utf-8"?>
<!DOCTYPE svg PUBLIC "-//W3C//DTD SVG 1.1//EN" "http://www.w3.org/Graphics/SVG/1.1/DTD/svg11.dtd">
<svg version="1.1" id="Layer_1" xmlns="http://www.w3.org/2000/svg" xmlns:xlink="http://www.w3.org/1999/xlink" x="0px" y="0px"
	 width="612px" height="792px" viewBox="0 0 612 792" enable-background="new 0 0 612 792" xml:space="preserve">
<path id="path8410" fill="none" stroke="#000000" stroke-linecap="round" d="M151.647,88.629l-0.022,71.479l-61.689,35.719
	l-61.667-35.759l0.022-71.479L89.98,52.87L151.647,88.629z"/>
<path id="path8410_1_" fill="none" stroke="#000000" stroke-linecap="round" d="M275.026,88.629l-0.022,71.479l-61.689,35.719
	l-61.667-35.759l0.022-71.479l61.689-35.72L275.026,88.629z"/>
<path id="path8410_2_" fill="none" stroke="#000000" stroke-linecap="round" d="M398.404,88.629l-0.022,71.479l-61.688,35.719
	l-61.667-35.759l0.022-71.479l61.689-35.72L398.404,88.629z"/>
<path id="path8410_3_" fill="none" stroke="#000000" stroke-linecap="round" d="M521.782,88.629l-0.022,71.479l-61.688,35.719
	l-61.667-35.759l0.021-71.479l61.689-35.72L521.782,88.629z"/>
<path id="path8410_7_" fill="none" stroke="#000000" stroke-linecap="round" d="M213.337,196.024l-0.022,71.479l-61.689,35.719
	l-61.667-35.759l0.022-71.479l61.689-35.72L213.337,196.024z"/>
<path id="path8410_6_" fill="none" stroke="#000000" stroke-linecap="round" d="M336.715,196.024l-0.021,71.479l-61.689,35.719
	l-61.667-35.759l0.022-71.479l61.689-35.72L336.715,196.024z"/>
<path id="path8410_5_" fill="none" stroke="#000000" stroke-linecap="round" d="M460.094,196.024l-0.022,71.479l-61.688,35.719
	l-61.668-35.759l0.023-71.479l61.688-35.72L460.094,196.024z"/>
<path id="path8410_4_" fill="none" stroke="#000000" stroke-linecap="round" d="M583.472,196.024l-0.022,71.479l-61.688,35.719
	l-61.667-35.759l0.021-71.479l61.689-35.72L583.472,196.024z"/>
<path id="path8410_15_" fill="none" stroke="#000000" stroke-linecap="round" d="M151.647,303.295l-0.022,71.479l-61.689,35.719
	l-61.667-35.759l0.022-71.479l61.689-35.72L151.647,303.295z"/>
<path id="path8410_14_" fill="none" stroke="#000000" stroke-linecap="round" d="M275.026,303.295l-0.022,71.479l-61.689,35.719
	l-61.667-35.759l0.022-71.479l61.689-35.72L275.026,303.295z"/>
<path id="path8410_13_" fill="none" stroke="#000000" stroke-linecap="round" d="M398.404,303.295l-0.022,71.479l-61.688,35.719
	l-61.667-35.759l0.022-71.479l61.689-35.72L398.404,303.295z"/>
<path id="path8410_12_" fill="none" stroke="#000000" stroke-linecap="round" d="M521.782,303.295l-0.022,71.479l-61.688,35.719
	l-61.667-35.759l0.021-71.479l61.689-35.72L521.782,303.295z"/>
<path id="path8410_11_" fill="none" stroke="#000000" stroke-linecap="round" d="M213.337,410.691l-0.022,71.479l-61.689,35.719
	L89.958,482.13l0.022-71.479l61.689-35.72L213.337,410.691z"/>
<path id="path8410_10_" fill="none" stroke="#000000" stroke-linecap="round" d="M336.715,410.691l-0.021,71.479l-61.689,35.719
	l-61.667-35.759l0.022-71.479l61.689-35.72L336.715,410.691z"/>
<path id="path8410_9_" fill="none" stroke="#000000" stroke-linecap="round" d="M460.094,410.691l-0.022,71.479l-61.688,35.719
	l-61.668-35.759l0.023-71.479l61.688-35.72L460.094,410.691z"/>
<path id="path8410_8_" fill="none" stroke="#000000" stroke-linecap="round" d="M583.472,410.691l-0.022,71.479l-61.688,35.719
	l-61.667-35.759l0.021-71.479l61.689-35.72L583.472,410.691z"/>
<path id="path8410_23_" fill="none" stroke="#000000" stroke-linecap="round" d="M151.647,517.621l-0.022,71.479l-61.689,35.72
	l-61.667-35.759l0.022-71.479l61.689-35.72L151.647,517.621z"/>
<path id="path8410_22_" fill="none" stroke="#000000" stroke-linecap="round" d="M275.026,517.621l-0.022,71.479l-61.689,35.72
	l-61.667-35.759l0.022-71.479l61.689-35.72L275.026,517.621z"/>
<path id="path8410_21_" fill="none" stroke="#000000" stroke-linecap="round" d="M398.404,517.621l-0.022,71.479l-61.688,35.72
	l-61.667-35.759l0.022-71.479l61.689-35.72L398.404,517.621z"/>
<path id="path8410_20_" fill="none" stroke="#000000" stroke-linecap="round" d="M521.782,517.621L521.76,589.1l-61.688,35.72
	l-61.667-35.759l0.021-71.479l61.689-35.72L521.782,517.621z"/>
<path id="path8410_19_" fill="none" stroke="#000000" stroke-linecap="round" d="M213.337,625.018l-0.022,71.479l-61.689,35.719
	l-61.667-35.759l0.022-71.479l61.689-35.72L213.337,625.018z"/>
<path id="path8410_18_" fill="none" stroke="#000000" stroke-linecap="round" d="M336.715,625.018l-0.021,71.479l-61.689,35.719
	l-61.667-35.759l0.022-71.479l61.689-35.72L336.715,625.018z"/>
<path id="path8410_17_" fill="none" stroke="#000000" stroke-linecap="round" d="M460.094,625.018l-0.022,71.479l-61.688,35.719
	l-61.668-35.759l0.023-71.479l61.688-35.72L460.094,625.018z"/>
<path id="path8410_16_" fill="none" stroke="#000000" stroke-linecap="round" d="M583.472,625.018l-0.022,71.479l-61.688,35.719
	l-61.667-35.759l0.021-71.479l61.689-35.72L583.472,625.018z"/>
</svg>
